<?xml version="1.0" encoding="utf-8"?>
<!-- Generator: Adobe Illustrator 15.0.2, SVG Export Plug-In . SVG Version: 6.00 Build 0)  -->
<!DOCTYPE svg PUBLIC "-//W3C//DTD SVG 1.1//EN" "http://www.w3.org/Graphics/SVG/1.1/DTD/svg11.dtd">
<svg version="1.1" id="Layer_1" xmlns="http://www.w3.org/2000/svg" xmlns:xlink="http://www.w3.org/1999/xlink" x="0px" y="0px"
	 width="256px" height="256px" viewBox="0 0 256 256" enable-background="new 0 0 256 256" xml:space="preserve">
<rect width="256" height="256"/>
<g>
	<g>
		<rect x="117.489" y="78.564" fill="#78C0E5" width="21.025" height="2.325"/>
	</g>
	<g>
		<rect x="117.489" y="85.93" fill="#51B792" width="21.025" height="2.325"/>
	</g>
	<g>
		<polygon fill="#A6A4A4" points="149.363,126.522 106.927,126.522 106.927,121.873 144.714,121.873 144.714,73.334 111.385,73.334 
			111.385,90.771 106.735,90.771 106.735,68.684 149.363,68.684 		"/>
	</g>
	<g>
		<line fill="none" x1="108.963" y1="96.778" x2="108.963" y2="117.807"/>
		<rect x="106.637" y="96.778" fill="#A6A4A4" width="4.65" height="21.027"/>
	</g>
	<g>
		<rect x="117.489" y="93.485" fill="#F09D42" width="21.025" height="2.325"/>
	</g>
	<g>
		<rect x="117.489" y="100.655" fill="#D7522D" width="21.025" height="2.324"/>
	</g>
	<g>
		<rect x="117.489" y="108.02" fill="#6669A7" width="21.025" height="2.325"/>
	</g>
	<g>
		<rect x="117.489" y="115.479" fill="#4284B5" width="21.025" height="2.326"/>
	</g>
	<defs>
		<filter id="Adobe_OpacityMaskFilter" filterUnits="userSpaceOnUse" x="106.637" y="129.477" width="42.727" height="57.84">
			<feColorMatrix  type="matrix" values="1 0 0 0 0  0 1 0 0 0  0 0 1 0 0  0 0 0 1 0"/>
		</filter>
	</defs>
	<mask maskUnits="userSpaceOnUse" x="106.637" y="129.477" width="42.727" height="57.84" id="SVGID_1_">
		<g filter="url(#Adobe_OpacityMaskFilter)">
			
				<linearGradient id="SVGID_2_" gradientUnits="userSpaceOnUse" x1="-268.6587" y1="474.042" x2="-268.9914" y2="506.3971" gradientTransform="matrix(1 0 0 1 398.5498 -356.8906)">
				<stop  offset="0" style="stop-color:#FFFFFF"/>
				<stop  offset="0.0651" style="stop-color:#D9D9D9"/>
				<stop  offset="0.1853" style="stop-color:#989898"/>
				<stop  offset="0.2999" style="stop-color:#626262"/>
				<stop  offset="0.4057" style="stop-color:#373737"/>
				<stop  offset="0.5008" style="stop-color:#191919"/>
				<stop  offset="0.5819" style="stop-color:#070707"/>
				<stop  offset="0.6393" style="stop-color:#000000"/>
			</linearGradient>
			
				<rect x="103.633" y="126.717" opacity="0.5" fill="url(#SVGID_2_)" enable-background="new    " width="52.126" height="18.793"/>
		</g>
	</mask>
	<g mask="url(#SVGID_1_)">
		<g>
			<polygon fill="#A6A4A4" points="149.363,187.316 106.735,187.316 106.735,165.23 111.385,165.23 111.385,182.666 
				144.714,182.666 144.714,134.127 106.927,134.127 106.927,129.477 149.363,129.477 			"/>
		</g>
		<g>
			<line fill="none" x1="108.963" y1="159.221" x2="108.963" y2="138.193"/>
			<rect x="106.637" y="138.193" fill="#A6A4A4" width="4.65" height="21.025"/>
		</g>
		<g>
			<rect x="117.489" y="175.109" fill="#78C0E5" width="21.025" height="2.326"/>
		</g>
		<g>
			<rect x="117.489" y="167.746" fill="#51B792" width="21.025" height="2.324"/>
		</g>
		<g>
			<rect x="117.489" y="160.188" fill="#F09D42" width="21.025" height="2.326"/>
		</g>
		<g>
			<rect x="117.489" y="153.02" fill="#D7522D" width="21.025" height="2.326"/>
		</g>
		<g>
			<rect x="117.489" y="145.656" fill="#6669A7" width="21.025" height="2.326"/>
		</g>
		<g>
			<rect x="117.489" y="138.197" fill="#4284B5" width="21.025" height="2.326"/>
		</g>
	</g>
</g>
<g display="none">
	<path display="inline" fill="#A6A4A4" d="M74.337,154.587c-2.023,0-3.977-2.162-3.977-8.019c0-5.764,1.976-8.02,4.254-8.02
		c1.998,0,3.928,2.141,3.928,8.02c0,5.834-1.952,8.019-4.183,8.019H74.337z M74.476,153.682c2.463,0,3.02-4.093,3.02-7.11
		c0-3.021-0.604-7.113-3.043-7.113c-2.441,0-3.046,4.045-3.046,7.113c0,3.02,0.604,7.11,3.046,7.11H74.476z"/>
	<path display="inline" fill="#A6A4A4" d="M80.849,146.686c0-1.953-0.07-2.834-0.093-3.438h0.951l0.048,1.482h0.046
		c0.697-1.369,1.603-1.67,2.37-1.67c1.629,0,3.091,1.67,3.091,5.715c0,4.252-1.696,5.812-3.345,5.812
		c-1.141,0-1.722-0.72-2.023-1.417h-0.045v5.693h-1V146.686z M81.849,150.288c0,0.303,0,0.604,0.045,0.905
		c0.418,2.16,1.464,2.51,2.047,2.51c1.74,0,2.276-2.322,2.276-4.88c0-2.44-0.581-4.88-2.324-4.88c-1.022,0-1.928,1.369-2.021,2.695
		c-0.022,0.301-0.022,0.58-0.022,0.883L81.849,150.288L81.849,150.288z"/>
	<path display="inline" fill="#A6A4A4" d="M89.917,148.405c0,4.483,1.554,5.25,2.81,5.25c0.72,0,1.303-0.187,1.674-0.44l0.232,0.77
		c-0.534,0.371-1.349,0.557-2.092,0.557c-2.441,0-3.649-2.301-3.649-5.671c0-3.531,1.278-5.81,3.324-5.81
		c2.208,0,2.812,2.719,2.812,4.693c0,0.209,0,0.417,0,0.65L89.917,148.405L89.917,148.405z M93.958,147.59
		c0.048-2.74-1.093-3.646-1.906-3.646c-1.301,0-1.998,1.857-2.112,3.646H93.958z"/>
	<path display="inline" fill="#A6A4A4" d="M97.078,145.826c0-1.371-0.07-1.792-0.094-2.579h0.907l0.048,1.369h0.044
		c0.419-0.906,1.279-1.556,2.465-1.556c1.185,0,2.531,0.789,2.531,3.623v7.717h-0.999v-7.32c0-1.581-0.279-3.161-1.835-3.161
		c-0.905,0-1.789,0.789-2.023,2.325c-0.046,0.302-0.046,0.626-0.046,0.977v7.18h-0.998V145.826z"/>
	<path display="inline" fill="#A6A4A4" d="M110.399,138.736V154.4h-1v-15.664H110.399z"/>
	<path display="inline" fill="#A6A4A4" d="M113.261,145.826c0-1.371-0.07-1.792-0.092-2.579h0.904l0.045,1.369h0.049
		c0.418-0.906,1.277-1.556,2.465-1.556c1.184,0,2.531,0.789,2.531,3.623v7.717h-1v-7.32c0-1.581-0.279-3.161-1.834-3.161
		c-0.906,0-1.789,0.789-2.023,2.325c-0.045,0.302-0.045,0.626-0.045,0.977v7.18h-1V145.826z"/>
	<path display="inline" fill="#A6A4A4" d="M121.468,153.076c0.373,0.255,0.977,0.579,1.674,0.579c1.162,0,1.93-0.788,1.93-2.021
		c0-0.999-0.303-1.741-1.514-2.603c-1.23-0.885-2.252-1.719-2.252-3.16c0-1.697,1.303-2.812,2.719-2.812
		c0.838,0,1.441,0.324,1.812,0.604l-0.441,0.813c-0.418-0.326-0.859-0.533-1.441-0.533c-1.068,0-1.648,0.855-1.648,1.719
		c0,0.906,0.303,1.417,1.439,2.255c1.068,0.767,2.348,1.694,2.348,3.438c0,2.209-1.465,3.184-2.998,3.184
		c-0.744,0-1.535-0.255-1.998-0.648L121.468,153.076z"/>
	<path display="inline" fill="#A6A4A4" d="M129.464,140.807v2.44h2.117v0.856h-2.117v7.602c0,1.559,0.513,1.977,1.188,1.977
		c0.277,0,0.51-0.024,0.674-0.072l0.115,0.771c-0.254,0.115-0.533,0.161-1,0.161c-0.604,0-1.137-0.186-1.486-0.648
		c-0.348-0.466-0.488-1.141-0.488-2.558v-7.229h-1.395v-0.856h1.395v-1.86L129.464,140.807z"/>
	<path display="inline" fill="#A6A4A4" d="M133.234,145.826c0-0.838-0.069-1.883-0.094-2.579h0.95l0.048,1.812h0.045
		c0.28-0.977,1.256-1.998,2.42-1.998c0.067,0,0.138,0,0.207,0v1.092c-0.047,0-0.115,0-0.185,0c-1.442,0-2.278,1.418-2.371,2.789
		c-0.022,0.326-0.022,0.627-0.022,0.951v6.508h-0.998V145.826z"/>
	<path display="inline" fill="#A6A4A4" d="M144.02,151.589c0,1.253,0.067,2.114,0.092,2.812h-0.903l-0.095-1.16h-0.049
		c-0.229,0.417-1.045,1.349-2.276,1.349c-1.834,0-2.556-1.485-2.556-4.114v-7.226h1v7.017c0,1.93,0.274,3.463,1.74,3.463
		c1.396,0,1.932-1.348,2-1.949c0.047-0.351,0.047-0.676,0.047-1.023v-7.505h1V151.589L144.02,151.589z"/>
	<path display="inline" fill="#A6A4A4" d="M146.721,145.826c0-1.371-0.07-1.792-0.095-2.579h0.905l0.05,1.416h0.045
		c0.418-0.953,1.207-1.603,2.416-1.603c0.905,0,1.838,0.438,2.276,1.812h0.05c0.301-0.627,0.674-1.092,1.067-1.371
		c0.44-0.302,0.951-0.44,1.533-0.44c1.206,0,2.557,0.791,2.557,3.739v7.601h-0.998v-7.25c0-1.58-0.258-3.229-1.883-3.229
		c-0.885,0-1.674,0.789-1.955,2.093c-0.067,0.371-0.067,0.742-0.067,1.141v7.25h-1v-7.53c0-1.487-0.302-2.951-1.856-2.951
		c-0.908,0-1.791,0.812-2,2.325c-0.045,0.348-0.045,0.674-0.045,1.021v7.135h-1V145.826L146.721,145.826z"/>
	<path display="inline" fill="#A6A4A4" d="M160.741,148.405c0,4.483,1.557,5.25,2.812,5.25c0.721,0,1.303-0.187,1.676-0.44
		l0.229,0.77c-0.533,0.371-1.349,0.557-2.092,0.557c-2.441,0-3.647-2.301-3.647-5.671c0-3.531,1.278-5.81,3.323-5.81
		c2.207,0,2.812,2.719,2.812,4.693c0,0.209,0,0.417,0,0.65L160.741,148.405L160.741,148.405z M164.781,147.59
		c0.05-2.74-1.09-3.646-1.903-3.646c-1.301,0-1.998,1.857-2.112,3.646H164.781z"/>
	<path display="inline" fill="#A6A4A4" d="M167.9,145.826c0-1.371-0.069-1.792-0.094-2.579h0.905l0.047,1.369h0.048
		c0.418-0.906,1.276-1.556,2.465-1.556c1.185,0,2.531,0.789,2.531,3.623v7.717h-1v-7.32c0-1.581-0.279-3.161-1.834-3.161
		c-0.906,0-1.789,0.789-2.023,2.325c-0.047,0.302-0.047,0.626-0.047,0.977v7.18H167.9V145.826z"/>
	<path display="inline" fill="#A6A4A4" d="M177.665,140.807v2.44h2.116v0.856h-2.116v7.602c0,1.559,0.513,1.977,1.187,1.977
		c0.278,0,0.51-0.024,0.674-0.072l0.117,0.771c-0.256,0.115-0.533,0.161-1,0.161c-0.604,0-1.138-0.186-1.486-0.648
		c-0.348-0.466-0.489-1.141-0.489-2.558v-7.229h-1.396v-0.856h1.396v-1.86L177.665,140.807z"/>
	<path display="inline" fill="#A6A4A4" d="M181.016,153.076c0.371,0.255,0.978,0.579,1.674,0.579c1.162,0,1.931-0.788,1.931-2.021
		c0-0.999-0.304-1.741-1.513-2.603c-1.229-0.885-2.254-1.719-2.254-3.16c0-1.697,1.303-2.812,2.719-2.812
		c0.839,0,1.441,0.324,1.812,0.604l-0.439,0.813c-0.416-0.326-0.861-0.533-1.441-0.533c-1.066,0-1.648,0.855-1.648,1.719
		c0,0.906,0.304,1.417,1.439,2.255c1.07,0.767,2.348,1.694,2.348,3.438c0,2.209-1.465,3.184-2.998,3.184
		c-0.742,0-1.533-0.255-1.998-0.648L181.016,153.076z"/>
</g>
<g display="none">
	<polyline display="inline" fill="none" stroke="#A6A4A4" stroke-width="2" stroke-miterlimit="10" points="117.667,112.124 
		117.667,103.625 134,103.625 134,126.5 116.75,126.5 	"/>
	
		<line display="inline" fill="none" stroke="#A6A4A4" stroke-width="2" stroke-miterlimit="10" x1="117.625" y1="114.708" x2="117.625" y2="123.751"/>
	
		<line display="inline" fill="none" stroke="#78C0E5" stroke-miterlimit="10" x1="130.335" y1="107.375" x2="121.292" y2="107.375"/>
	
		<line display="inline" fill="none" stroke="#51B792" stroke-miterlimit="10" x1="130.335" y1="110.542" x2="121.292" y2="110.542"/>
	
		<line display="inline" fill="none" stroke="#F09D42" stroke-miterlimit="10" x1="130.335" y1="113.792" x2="121.292" y2="113.792"/>
	
		<line display="inline" fill="none" stroke="#D7522D" stroke-miterlimit="10" x1="130.335" y1="116.875" x2="121.292" y2="116.875"/>
	
		<line display="inline" fill="none" stroke="#6669A7" stroke-miterlimit="10" x1="130.335" y1="120.042" x2="121.292" y2="120.042"/>
	<line display="inline" fill="none" stroke="#4284B5" stroke-miterlimit="10" x1="130.335" y1="123.25" x2="121.292" y2="123.25"/>
	<defs>
		<filter id="Adobe_OpacityMaskFilter_1_" filterUnits="userSpaceOnUse" x="116.625" y="128.771" width="18.375" height="24.875">
			<feColorMatrix  type="matrix" values="1 0 0 0 0  0 1 0 0 0  0 0 1 0 0  0 0 0 1 0"/>
		</filter>
	</defs>
	<mask maskUnits="userSpaceOnUse" x="116.625" y="128.771" width="18.375" height="24.875" id="SVGID_3_" display="inline">
		<g filter="url(#Adobe_OpacityMaskFilter_1_)">
			
				<linearGradient id="SVGID_4_" gradientUnits="userSpaceOnUse" x1="-271.9243" y1="480.3613" x2="-272.0674" y2="494.2733" gradientTransform="matrix(1 0 0 1 398.5498 -356.8906)">
				<stop  offset="0" style="stop-color:#FFFFFF"/>
				<stop  offset="0.0651" style="stop-color:#D9D9D9"/>
				<stop  offset="0.1853" style="stop-color:#989898"/>
				<stop  offset="0.2999" style="stop-color:#626262"/>
				<stop  offset="0.4057" style="stop-color:#373737"/>
				<stop  offset="0.5008" style="stop-color:#191919"/>
				<stop  offset="0.5819" style="stop-color:#070707"/>
				<stop  offset="0.6393" style="stop-color:#000000"/>
			</linearGradient>
			<rect x="115.333" y="127.583" opacity="0.5" fill="url(#SVGID_4_)" enable-background="new    " width="22.417" height="8.083"/>
		</g>
	</mask>
	<g display="inline" mask="url(#SVGID_3_)">
		<polyline fill="none" stroke="#A6A4A4" stroke-width="2" stroke-miterlimit="10" points="117.667,144.146 117.667,152.646 
			134,152.646 134,129.771 116.75,129.771 		"/>
		
			<line fill="none" stroke="#A6A4A4" stroke-width="2" stroke-miterlimit="10" x1="117.625" y1="141.562" x2="117.625" y2="132.52"/>
		<line fill="none" stroke="#78C0E5" stroke-miterlimit="10" x1="130.335" y1="148.896" x2="121.292" y2="148.896"/>
		<line fill="none" stroke="#51B792" stroke-miterlimit="10" x1="130.335" y1="145.729" x2="121.292" y2="145.729"/>
		<line fill="none" stroke="#F09D42" stroke-miterlimit="10" x1="130.335" y1="142.479" x2="121.292" y2="142.479"/>
		<line fill="none" stroke="#D7522D" stroke-miterlimit="10" x1="130.335" y1="139.396" x2="121.292" y2="139.396"/>
		<line fill="none" stroke="#6669A7" stroke-miterlimit="10" x1="130.335" y1="136.229" x2="121.292" y2="136.229"/>
		<line fill="none" stroke="#4284B5" stroke-miterlimit="10" x1="130.335" y1="133.021" x2="121.292" y2="133.021"/>
	</g>
	
		<text transform="matrix(1 0 0 1 138.625 126.5)" display="inline" fill="#A6A4A4" font-family="'MyriadPro-LightCond'" font-size="10">Open Instruments</text>
</g>
<text transform="matrix(1 0 0 1 137.292 126.5)" display="none" fill="#A6A4A4" enable-background="new    " font-family="'MyriadPro-LightCond'" font-size="10">Open Instruments</text>
<line display="none" fill="none" stroke="#A6A4A4" stroke-miterlimit="10" x1="117.625" y1="134.5" x2="117.625" y2="141.207"/>
</svg>
